<?xml version="1.0" standalone="no"?><svg xmlns="http://www.w3.org/2000/svg" viewBox="0 0 1440 320"><path fill="#66CDAA" fill-opacity="0.35" d="M0,96L43.6,64L87.3,256L130.9,32L174.5,256L218.2,128L261.8,160L305.5,0L349.1,32L392.7,160L436.4,320L480,96L523.6,128L567.3,320L610.9,128L654.5,224L698.2,192L741.8,192L785.5,160L829.1,288L872.7,96L916.4,320L960,64L1003.6,64L1047.3,128L1090.9,192L1134.5,256L1178.2,288L1221.8,32L1265.5,320L1309.1,160L1352.7,128L1396.4,96L1440,192L1440,320L1396.4,320L1352.7,320L1309.1,320L1265.5,320L1221.8,320L1178.2,320L1134.5,320L1090.9,320L1047.3,320L1003.6,320L960,320L916.4,320L872.7,320L829.1,320L785.5,320L741.8,320L698.2,320L654.5,320L610.9,320L567.3,320L523.6,320L480,320L436.4,320L392.7,320L349.1,320L305.5,320L261.8,320L218.2,320L174.5,320L130.9,320L87.3,320L43.6,320L0,320Z"></path></svg>
