<svg viewBox="0 0 1440 320" xmlns="http://www.w3.org/2000/svg"><path d="m0 96 43.6-32 43.7 192 43.6-224 43.6 224 43.7-128 43.6 32 43.7-160 43.6 32 43.6 128 43.7 160 43.6-224 43.6 32 43.7 192 43.6-192 43.6 96 43.7-32h43.6l43.7-32 43.6 128 43.6-192 43.7 224 43.6-256h43.6l43.7 64 43.6 64 43.6 64 43.7 32 43.6-256 43.7 288 43.6-160 43.6-32 43.7-32 43.6 96v128h-43.6-43.7-43.6-43.6-43.7-43.6-43.7-43.6-43.6-43.7-43.6-43.6-43.7-43.6-43.6-43.7-43.6-43.7-43.6-43.6-43.7-43.6-43.6-43.7-43.6-43.6-43.7-43.6-43.7-43.6-43.6-43.7-43.6z" fill="#66cdaa" fill-opacity=".35"/></svg>